:SAMPLES-PER-SECOND 30
:FULLY-SPECIFIED
:DEGREES
769
root  -51.4949 39.6697 -4.49318 -4.31445 -23.4404 5.04263
RightUpLeg  -1.36528 -22.3895 -25.1214
RightLeg  1.4674 -27.6756 4.19371
RightFoot  10.2256 -1.61143 8.87961
RightToes  2.96859e-009 0 -3.6325e-017
Spine  6.6281 -3.25031 0.647934
Spine1  13.0497 -3.79307 0.405656
HEad  -14.7208 1.24834 -5.2011
LeftShoulder1  0.599006 1.91477 -31.6274
LeftArm  9.55313 -6.22194 -45.9404
LeftForeArm  16.8821 -17.1854 -6.80598
LeftHand  -0.0510634 2.02246 1.37272
RightShoulder  -0.183524 -4.07366 24.4903
RightArm  25.9964 -7.10267 37.6912
RightForeArm  -15.2666 21.3517 5.74583
RightHand  -0.677497 3.71973 -8.85794
LeftUpLeg  -0.92097 36.7002 4.54923
LeftLeg  19.3053 16.6623 4.62307
LeftFoot  -8.91111 0.103097 -2.27067
LeftToes  3.24686e-010 -7.02549e-012 1.39809e-011
770
root  -50.5615 39.4641 -4.37479 -4.60118 -17.1568 5.16969
RightUpLeg  -0.295194 -23.6568 -27.7528
RightLeg  5.0098 -24.4633 1.3696
RightFoot  5.39872 -1.722 11.9502
RightToes  2.96859e-009 0 -3.6325e-017
Spine  6.40762 -3.10361 0.117913
Spine1  13.0963 -3.69288 0.299689
HEad  -15.0964 0.199888 -3.7642
LeftShoulder1  0.515676 2.18507 -32.9849
LeftArm  12.283 -14.881 -49.6326
LeftForeArm  15.9102 -14.6799 -8.82414
LeftHand  -0.103599 1.99187 3.24748
RightShoulder  -0.226011 -4.20103 24.8996
RightArm  22.7311 -8.67845 36.8304
RightForeArm  -15.0632 20.2362 5.79781
RightHand  -0.792815 3.90787 -10.1476
LeftUpLeg  -3.83044 35.0848 0.867004
LeftLeg  21.8141 12.7287 5.89878
LeftFoot  -10.1766 0.0590962 0.177719
LeftToes  3.24686e-010 -7.02549e-012 1.39809e-011
771
root  -49.6867 39.3644 -4.22105 -4.53276 -11.9279 4.29793
RightUpLeg  -0.525362 -21.5569 -27.198
RightLeg  7.37167 -14.9265 -1.2231
RightFoot  0.274375 -1.21592 11.7053
RightToes  2.96859e-009 0 -3.6325e-017
Spine  5.77684 -2.95191 1.41844
Spine1  13.5127 -3.11413 -1.32026
HEad  -14.7542 -0.00282265 -2.78896
LeftShoulder1  0.464459 2.31433 -32.9375
LeftArm  10.7519 -21.4059 -55.3613
LeftForeArm  21.4087 -11.029 -10.6775
LeftHand  -0.0682519 2.339 2.1775
RightShoulder  -0.292765 -4.39176 25.7683
RightArm  20.2988 -8.92344 36.8659
RightForeArm  -13.4541 17.4003 6.2121
RightHand  -0.719234 3.13086 -10.013
LeftUpLeg  -5.38988 29.7958 -1.04012
LeftLeg  23.5837 13.3267 6.6521
LeftFoot  -11.173 0.0632866 2.14107
LeftToes  3.24686e-010 -7.02549e-012 1.39809e-011
772
root  -48.9374 39.3337 -4.07166 -5.28348 -7.948 3.73268
RightUpLeg  -2.09039 -13.3562 -25.4876
RightLeg  11.3955 -6.15819 -2.58135
RightFoot  -2.49298 -0.537687 6.8513
RightToes  2.96859e-009 0 -3.6325e-017
Spine  6.44069 -2.50255 1.09391
Spine1  13.4645 -2.69877 -1.5599
HEad  -14.0506 0.423778 -2.85692
LeftShoulder1  0.449413 2.32999 -32.1963
LeftArm  11.4869 -24.6418 -61.4045
LeftForeArm  24.4542 -9.69206 -11.1779
LeftHand  -0.0599178 2.71396 2.02825
RightShoulder  -0.285656 -4.37046 25.7021
RightArm  17.901 -8.07863 38.3497
RightForeArm  -11.1016 13.7696 7.0355
RightHand  -0.710766 2.79022 -10.296
LeftUpLeg  -4.71877 26.4035 -1.90463
LeftLeg  23.8191 13.2256 6.57647
LeftFoot  -11.9685 0.0893322 3.23584
LeftToes  3.24686e-010 -7.02549e-012 1.39809e-011
773
root  -48.3249 39.3204 -3.85433 -6.18236 -3.74664 3.49007
RightUpLeg  -3.69723 -3.73317 -24.0934
RightLeg  17.5427 -1.67637 -0.700589
RightFoot  -3.86859 -0.39905 5.71459
RightToes  2.96859e-009 0 -3.6325e-017
Spine  7.52186 -2.3775 -1.09925
Spine1  12.8101 -3.21025 -0.286422
HEad  -13.3661 1.75109 -3.16438
LeftShoulder1  0.558836 2.01188 -31.414
LeftArm  16.3974 -25.2069 -65.7724
LeftForeArm  22.4992 -11.195 -10.9818
LeftHand  -0.0530301 3.06684 1.95996
RightShoulder  -0.2207 -4.17287 25.4705
RightArm  16.1458 -6.8734 40.1869
RightForeArm  -9.14462 10.934 7.64731
RightHand  -0.727647 2.4159 -10.9903
LeftUpLeg  -3.35584 22.0671 -2.7869
LeftLeg  23.5505 13.891 6.27217
LeftFoot  -12.5401 0.117744 4.05387
LeftToes  3.24686e-010 -7.02549e-012 1.39809e-011
774
root  -47.7733 39.3598 -3.60114 -6.45398 0.856369 3.22833
RightUpLeg  -5.80985 -1.72993 -21.7263
RightLeg  23.7952 2.4104 0.910147
RightFoot  -5.39233 -0.320027 5.47079
RightToes  2.96859e-009 0 -3.6325e-017
Spine  8.18259 -2.68291 -3.03311
Spine1  12.0297 -4.04118 0.692941
HEad  -12.9651 2.97194 -3.73691
LeftShoulder1  0.689475 1.62975 -30.6939
LeftArm  25.1465 -24.5066 -68.3712
LeftForeArm  18.1771 -14.8216 -9.59838
LeftHand  -0.0537191 1.78099 1.41689
RightShoulder  -0.19514 -4.08767 25.7061
RightArm  14.3897 -6.92257 42.1563
RightForeArm  -7.34875 11.1152 7.13525
RightHand  -0.632778 2.58504 -9.41244
LeftUpLeg  -2.29262 16.9699 -3.85055
LeftLeg  22.6971 14.9405 5.62755
LeftFoot  -12.7614 0.138239 4.97275
LeftToes  3.24686e-010 -7.02549e-012 1.39809e-011
775
root  -47.2124 39.4698 -3.30432 -6.52374 5.40298 2.68036
RightUpLeg  -8.03958 -1.78498 -18.6328
RightLeg  29.1752 1.76301 0.814488
RightFoot  -6.71027 -0.27526 5.6612
RightToes  2.96859e-009 0 -3.6325e-017
Spine  8.54723 -3.06535 -4.6239
Spine1  11.9418 -5.04034 2.30322
HEad  -13.6974 5.01331 -3.53496
LeftShoulder1  0.613116 1.85103 -31.0068
LeftArm  35.936 -24.0621 -69.4542
LeftForeArm  12.7882 -19.0471 -7.07771
LeftHand  -0.0358752 1.91029 0.876367
RightShoulder  -0.242367 -4.23633 25.6231
RightArm  13.5178 -7.38512 44.247
RightForeArm  -8.66364 13.8543 6.26593
RightHand  -0.665358 2.96292 -9.46193
LeftUpLeg  -0.829411 12.358 -4.49955
LeftLeg  20.8959 15.265 4.45572
LeftFoot  -12.7921 0.146539 5.49206
LeftToes  3.24686e-010 -7.02549e-012 1.39809e-011
776
root  -46.6754 39.5895 -2.96891 -6.38057 9.63416 1.95996
RightUpLeg  -10.7078 -2.52971 -14.9073
RightLeg  33.1624 -0.741015 -0.762815
RightFoot  -7.055 -0.235249 5.00564
RightToes  2.96859e-009 0 -3.6325e-017
Spine  8.3791 -3.3233 -5.37953
Spine1  12.0348 -5.57196 3.19795
HEad  -14.5041 5.74038 -3.32065
LeftShoulder1  0.646533 1.75546 -30.8908
LeftArm  39.2291 -22.7047 -69.8775
LeftForeArm  11.6283 -21.9166 -5.01731
LeftHand  -0.016735 1.68865 0.236731
RightShoulder  -0.36212 -4.59651 26.1098
RightArm  13.8073 -7.90964 45.6312
RightForeArm  -10.7502 17.5263 5.54843
RightHand  -0.66623 3.19313 -9.21303
LeftUpLeg  0.474562 9.46955 -4.84719
LeftLeg  18.9862 14.3031 3.34522
LeftFoot  -12.8109 0.152659 5.89198
LeftToes  3.24686e-010 -7.02549e-012 1.39809e-011
777
root  -46.1695 39.6839 -2.59337 -6.28395 13.8361 1.27281
RightUpLeg  -13.3328 -2.82486 -11.0715
RightLeg  35.2181 -2.46159 -2.09917
RightFoot  -6.98773 -0.201149 4.04052
RightToes  2.96859e-009 0 -3.6325e-017
Spine  8.47313 -3.62274 -6.25722
Spine1  11.8132 -6.19989 4.42578
HEad  -14.9637 6.18236 -3.16514
LeftShoulder1  0.643068 1.77895 -31.1991
LeftArm  38.8686 -21.2103 -68.8469
LeftForeArm  11.1453 -24.0882 -4.47236
LeftHand  -0.00882918 1.62003 0.0207579
RightShoulder  -0.406844 -4.72851 26.2637
RightArm  15.0657 -8.18925 46.7987
RightForeArm  -12.6246 21.4468 5.4305
RightHand  -0.798374 3.95788 -10.1668
LeftUpLeg  1.81206 7.65834 -5.06181
LeftLeg  17.2246 12.3962 2.42693
LeftFoot  -12.8307 0.161117 6.44104
LeftToes  3.24686e-010 -7.02549e-012 1.39809e-011
778
root  -45.6629 39.7202 -2.16771 -6.48586 17.7777 0.906799
RightUpLeg  -15.2188 -3.12733 -7.90559
RightLeg  34.3675 -1.63496 -1.45396
RightFoot  -6.84721 -0.209951 4.15696
RightToes  2.96859e-009 0 -3.6325e-017
Spine  9.0587 -3.76334 -7.01243
Spine1  11.337 -6.51293 5.15339
HEad  -15.4515 6.45652 -2.70812
LeftShoulder1  0.600031 1.89777 -31.2727
LeftArm  37.1639 -19.7463 -67.5864
LeftForeArm  11.0126 -24.8735 -4.7448
LeftHand  -0.0154113 0.923051 0.226341
RightShoulder  -0.410928 -4.73504 26.4225
RightArm  15.6089 -8.23202 47.592
RightForeArm  -10.6754 24.8883 5.83211
RightHand  -0.783256 4.16398 -9.76681
LeftUpLeg  3.57119 7.12139 -5.14696
LeftLeg  15.7267 9.42494 1.28629
LeftFoot  -13.0587 0.189968 7.41487
LeftToes  3.24686e-010 -7.02549e-012 1.39809e-011
779
root  -45.172 39.7241 -1.6898 -6.81586 21.6972 0.468796
RightUpLeg  -16.1163 -2.50314 -4.92351
RightLeg  30.2795 -0.73884 -0.701303
RightFoot  -6.72483 -0.254334 5.17904
RightToes  2.96859e-009 0 -3.6325e-017
Spine  9.48114 -3.73254 -7.48477
Spine1  11.2129 -6.61492 5.77021
HEad  -15.7696 6.37867 -2.49595
LeftShoulder1  0.611102 1.85455 -30.966
LeftArm  36.9642 -18.7518 -66.5787
LeftForeArm  8.85127 -24.2809 -4.71063
LeftHand  -0.0656935 0.720554 1.56163
RightShoulder  -0.402153 -4.7101 26.3678
RightArm  16.671 -7.93825 47.8301
RightForeArm  -7.94495 28.1638 6.50124
RightHand  -0.800674 4.08741 -10.0586
LeftUpLeg  5.3011 6.83309 -5.0678
LeftLeg  14.7702 6.05913 0.581525
LeftFoot  -13.5096 0.234146 8.05774
LeftToes  3.24686e-010 -7.02549e-012 1.39809e-011
780
root  -44.5687 39.681 -1.18991 -6.79489 25.4492 0.427231
RightUpLeg  -16.5021 -1.60116 -3.02606
RightLeg  23.8014 -0.217734 -0.302551
RightFoot  -6.7084 -0.31025 6.53197
RightToes  2.96859e-009 0 -3.6325e-017
Spine  9.39007 -3.80605 -7.09542
Spine1  11.3414 -6.42606 5.28155
HEad  -16.204 5.77891 -2.22384
LeftShoulder1  0.620611 1.82005 -30.7695
LeftArm  35.7366 -17.9827 -65.1625
LeftForeArm  8.53444 -22.8705 -4.72965
LeftHand  -0.0387955 1.46426 0.915483
RightShoulder  -0.434863 -4.80726 26.4506
RightArm  18.3074 -7.29051 47.6798
RightForeArm  -5.44162 30.6162 6.98497
RightHand  -0.788378 3.74505 -10.2574
LeftUpLeg  6.85104 6.26665 -5.62688
LeftLeg  13.9422 3.21926 0.272419
LeftFoot  -13.9759 0.288768 8.87515
LeftToes  3.24686e-010 -7.02549e-012 1.39809e-011
781
root  -43.9375 39.6288 -0.640705 -6.99081 29.1711 0.27507
RightUpLeg  -15.9501 -1.74844 -1.45708
RightLeg  15.7064 0.0847962 -0.216955
RightFoot  -6.21126 -0.334562 6.53741
RightToes  2.96859e-009 0 -3.6325e-017
Spine  9.34312 -3.82279 -6.53581
Spine1  11.5198 -6.27221 5.10981
HEad  -16.3012 4.65802 -2.03172
LeftShoulder1  0.597025 1.89347 -30.9841
LeftArm  31.8358 -17.6719 -63.141
LeftForeArm  10.6619 -20.2578 -6.01658
LeftHand  -0.0384333 2.22287 1.06806
RightShoulder  -0.412737 -4.75608 26.0108
RightArm  18.6909 -6.91376 47.6915
RightForeArm  -3.45171 31.8455 7.19957
RightHand  -0.835641 4.4324 -10.1303
LeftUpLeg  8.69936 6.1594 -5.67602
LeftLeg  13.2704 -0.0598794 -0.266338
LeftFoot  -14.4935 0.356733 9.76698
LeftToes  3.24686e-010 -7.02549e-012 1.39809e-011
